<svg width="743" height="750" viewBox="0 0 743 750" fill="none" xmlns="http://www.w3.org/2000/svg">
    <circle cx="267.096" cy="267.096" r="266.279" transform="matrix(0.777146 -0.62932 -0.422618 0.906308 277.376 300.738)" stroke="url(#paint0_linear_302_187)" stroke-width="1.63308"/>
    <circle cx="267.096" cy="267.096" r="266.279" transform="matrix(0.866025 -0.5 -0.559193 0.829038 289.867 287.208)" stroke="url(#paint1_linear_302_187)" stroke-width="1.63308"/>
    <circle cx="267.096" cy="267.096" r="266.279" transform="matrix(0.926104 -0.377268 -0.666993 0.745064 302.358 276.797)" stroke="url(#paint2_linear_302_187)" stroke-width="1.63308"/>
    <circle cx="267.096" cy="267.096" r="266.279" transform="matrix(0.965926 -0.258819 -0.75471 0.656059 314.85 268.47)" stroke="url(#paint3_linear_302_187)" stroke-width="1.63308"/>
    <circle cx="267.096" cy="267.096" r="266.279" transform="matrix(0.993189 -0.116511 -0.841598 0.540105 331.505 262.225)" stroke="url(#paint4_linear_302_187)" stroke-width="1.63308"/>
    <circle cx="267.096" cy="267.096" r="266.279" transform="matrix(0.999535 0.030505 -0.911748 0.410749 348.16 257.02)" stroke="url(#paint5_linear_302_187)" stroke-width="1.63308"/>
    <circle cx="267.096" cy="267.096" r="266.279" transform="matrix(0.981698 0.190443 -0.965829 0.259179 367.938 254.938)" stroke="url(#paint6_linear_302_187)" stroke-width="1.63308"/>
    <circle cx="267.096" cy="267.096" r="266.279" transform="matrix(0.94449 0.328541 -0.992925 0.118746 384.593 254.938)" stroke="url(#paint7_linear_302_187)" stroke-width="1.63308"/>
    <circle cx="267.096" cy="267.096" r="266.279" transform="matrix(0.880241 0.474527 -0.999174 -0.0406299 403.33 259.102)" stroke="url(#paint8_linear_302_187)" stroke-width="1.63308"/>
    <circle cx="267.096" cy="267.096" r="266.279" transform="matrix(0.798609 0.60185 -0.981619 -0.190851 421.025 265.347)" stroke="url(#paint9_linear_302_187)" stroke-width="1.63308"/>
    <circle cx="267.096" cy="267.096" r="266.279" transform="matrix(0.709737 0.704467 -0.946725 -0.322043 434.558 272.634)" stroke="url(#paint10_linear_302_187)" stroke-width="1.63308"/>
    <circle cx="267.096" cy="267.096" r="266.279" transform="matrix(0.605318 0.795984 -0.892992 -0.450072 448.09 282.003)" stroke="url(#paint11_linear_302_187)" stroke-width="1.63308"/>
    <circle cx="267.096" cy="267.096" r="266.279" transform="matrix(0.48005 0.877241 -0.816023 -0.578019 461.622 295.535)" stroke="url(#paint12_linear_302_187)" stroke-width="1.63308"/>
    <circle cx="267.096" cy="267.096" r="266.279" transform="matrix(0.353342 0.935494 -0.727676 -0.685921 470.991 308.025)" stroke="url(#paint13_linear_302_187)" stroke-width="1.63308"/>
    <circle cx="267.096" cy="267.096" r="266.279" transform="matrix(0.19599 0.980606 -0.606024 -0.795446 481.4 324.682)" stroke="url(#paint14_linear_302_187)" stroke-width="1.63308"/>
    <circle cx="267.096" cy="267.096" r="266.279" transform="matrix(0.0563133 0.998413 -0.48829 -0.872682 487.646 341.336)" stroke="url(#paint15_linear_302_187)" stroke-width="1.63308"/>
    <circle cx="267.096" cy="267.096" r="266.279" transform="matrix(-0.0905128 0.995895 -0.355219 -0.934783 490.769 359.031)" stroke="url(#paint16_linear_302_187)" stroke-width="1.63308"/>
    <circle cx="267.096" cy="267.096" r="266.279" transform="matrix(-0.226137 0.974096 -0.223765 -0.974643 491.81 374.646)" stroke="url(#paint17_linear_302_187)" stroke-width="1.63308"/>
    <circle cx="267.096" cy="267.096" r="266.279" transform="matrix(-0.370847 0.928694 -0.0737974 -0.997273 489.728 393.384)" stroke="url(#paint18_linear_302_187)" stroke-width="1.63308"/>
    <circle cx="267.096" cy="267.096" r="266.279" transform="matrix(-0.515771 0.856727 0.0880077 -0.99612 485.564 412.119)" stroke="url(#paint19_linear_302_187)" stroke-width="1.63308"/>
    <circle cx="267.096" cy="267.096" r="266.279" transform="matrix(-0.643193 0.765704 0.242435 -0.970168 478.277 429.815)" stroke="url(#paint20_linear_302_187)" stroke-width="1.63308"/>
    <defs>
        <linearGradient id="paint0_linear_302_187" x1="0" y1="267.096" x2="534.192" y2="267.096" gradientUnits="userSpaceOnUse">
            <stop offset="0.205" stop-color="#00a747"/>
            <stop offset="1" stop-color="#011e8d"/>
        </linearGradient>
        <linearGradient id="paint1_linear_302_187" x1="0" y1="267.096" x2="534.192" y2="267.096" gradientUnits="userSpaceOnUse">
            <stop offset="0.205" stop-color="#00a747"/>
            <stop offset="1" stop-color="#011e8d"/>
        </linearGradient>
        <linearGradient id="paint2_linear_302_187" x1="0" y1="267.096" x2="534.192" y2="267.096" gradientUnits="userSpaceOnUse">
            <stop offset="0.205" stop-color="#00a747"/>
            <stop offset="1" stop-color="#011e8d"/>
        </linearGradient>
        <linearGradient id="paint3_linear_302_187" x1="0" y1="267.096" x2="534.192" y2="267.096" gradientUnits="userSpaceOnUse">
            <stop offset="0.205" stop-color="#00a747"/>
            <stop offset="1" stop-color="#011e8d"/>
        </linearGradient>
        <linearGradient id="paint4_linear_302_187" x1="0" y1="267.096" x2="534.192" y2="267.096" gradientUnits="userSpaceOnUse">
            <stop offset="0.205" stop-color="#00a747"/>
            <stop offset="1" stop-color="#011e8d"/>
        </linearGradient>
        <linearGradient id="paint5_linear_302_187" x1="0" y1="267.096" x2="534.192" y2="267.096" gradientUnits="userSpaceOnUse">
            <stop offset="0.205" stop-color="#00a747"/>
            <stop offset="1" stop-color="#011e8d"/>
        </linearGradient>
        <linearGradient id="paint6_linear_302_187" x1="0" y1="267.096" x2="534.192" y2="267.096" gradientUnits="userSpaceOnUse">
            <stop offset="0.205" stop-color="#00a747"/>
            <stop offset="1" stop-color="#011e8d"/>
        </linearGradient>
        <linearGradient id="paint7_linear_302_187" x1="0" y1="267.096" x2="534.192" y2="267.096" gradientUnits="userSpaceOnUse">
            <stop offset="0.205" stop-color="#00a747"/>
            <stop offset="1" stop-color="#011e8d"/>
        </linearGradient>
        <linearGradient id="paint8_linear_302_187" x1="0" y1="267.096" x2="534.192" y2="267.096" gradientUnits="userSpaceOnUse">
            <stop offset="0.205" stop-color="#00a747"/>
            <stop offset="1" stop-color="#011e8d"/>
        </linearGradient>
        <linearGradient id="paint9_linear_302_187" x1="0" y1="267.096" x2="534.192" y2="267.096" gradientUnits="userSpaceOnUse">
            <stop offset="0.205" stop-color="#00a747"/>
            <stop offset="1" stop-color="#011e8d"/>
        </linearGradient>
        <linearGradient id="paint10_linear_302_187" x1="0" y1="267.096" x2="534.192" y2="267.096" gradientUnits="userSpaceOnUse">
            <stop offset="0.205" stop-color="#00a747"/>
            <stop offset="1" stop-color="#011e8d"/>
        </linearGradient>
        <linearGradient id="paint11_linear_302_187" x1="0" y1="267.096" x2="534.192" y2="267.096" gradientUnits="userSpaceOnUse">
            <stop offset="0.205" stop-color="#00a747"/>
            <stop offset="1" stop-color="#011e8d"/>
        </linearGradient>
        <linearGradient id="paint12_linear_302_187" x1="0" y1="267.096" x2="534.192" y2="267.096" gradientUnits="userSpaceOnUse">
            <stop offset="0.205" stop-color="#00a747"/>
            <stop offset="1" stop-color="#011e8d"/>
        </linearGradient>
        <linearGradient id="paint13_linear_302_187" x1="0" y1="267.096" x2="534.192" y2="267.096" gradientUnits="userSpaceOnUse">
            <stop offset="0.205" stop-color="#00a747"/>
            <stop offset="1" stop-color="#011e8d"/>
        </linearGradient>
        <linearGradient id="paint14_linear_302_187" x1="0" y1="267.096" x2="534.192" y2="267.096" gradientUnits="userSpaceOnUse">
            <stop offset="0.205" stop-color="#00a747"/>
            <stop offset="1" stop-color="#011e8d"/>
        </linearGradient>
        <linearGradient id="paint15_linear_302_187" x1="0" y1="267.096" x2="534.192" y2="267.096" gradientUnits="userSpaceOnUse">
            <stop offset="0.205" stop-color="#00a747"/>
            <stop offset="1" stop-color="#011e8d"/>
        </linearGradient>
        <linearGradient id="paint16_linear_302_187" x1="0" y1="267.096" x2="534.192" y2="267.096" gradientUnits="userSpaceOnUse">
            <stop offset="0.205" stop-color="#00a747"/>
            <stop offset="1" stop-color="#011e8d"/>
        </linearGradient>
        <linearGradient id="paint17_linear_302_187" x1="0" y1="267.096" x2="534.192" y2="267.096" gradientUnits="userSpaceOnUse">
            <stop offset="0.205" stop-color="#00a747"/>
            <stop offset="1" stop-color="#011e8d"/>
        </linearGradient>
        <linearGradient id="paint18_linear_302_187" x1="0" y1="267.096" x2="534.192" y2="267.096" gradientUnits="userSpaceOnUse">
            <stop offset="0.205" stop-color="#00a747"/>
            <stop offset="1" stop-color="#011e8d"/>
        </linearGradient>
        <linearGradient id="paint19_linear_302_187" x1="0" y1="267.096" x2="534.192" y2="267.096" gradientUnits="userSpaceOnUse">
            <stop offset="0.205" stop-color="#00a747"/>
            <stop offset="1" stop-color="#011e8d"/>
        </linearGradient>
        <linearGradient id="paint20_linear_302_187" x1="0" y1="267.096" x2="534.192" y2="267.096" gradientUnits="userSpaceOnUse">
            <stop offset="0.205" stop-color="#00a747"/>
            <stop offset="1" stop-color="#011e8d"/>
        </linearGradient>
    </defs>
</svg>
